<?xml version="1.0" encoding="UTF-8"?>
<svg id="Camada_1" xmlns="http://www.w3.org/2000/svg" viewBox="0 0 820.61 313.08">
  <defs>
    <style>
      .cls-1 {
        fill: #db1e2f;
        font-family: Alfarn, Alfarn;
        font-size: 102px;
      }

      .cls-2 {
        fill: #ef8123;
      }

      .cls-3 {
        letter-spacing: -.04em;
      }

      .cls-4 {
        fill: #3baa70;
      }

      .cls-5 {
        fill: #fbc013;
      }

      .cls-6 {
        fill: #02539b;
      }

      .cls-7 {
        letter-spacing: -.03em;
      }

      .cls-8 {
        letter-spacing: 0em;
      }

      .cls-9 {
        fill: #1587c9;
      }

      .cls-10 {
        fill: #8ebf44;
      }
    </style>
  </defs>
  <g>
    <circle class="cls-6" cx="158.4" cy="28" r="28"/>
    <circle class="cls-2" cx="158.11" cy="285.08" r="28"/>
    <circle class="cls-4" cx="28" cy="158.07" r="28"/>
    <g>
      <path class="cls-5" d="M158.29,214.32c-14.56,0-27.82-5.58-37.76-14.71l-51.1,55.64c13.95,12.84,30.67,22.71,49.15,28.61,1.22-20.87,18.53-37.42,39.71-37.42s38.59,16.65,39.72,37.61c21.48-6.73,40.68-18.78,55.92-34.49l-54.1-53.77c-10.22,11.38-25.04,18.53-41.54,18.53Z"/>
      <path class="cls-9" d="M120.27,117.59c9.97-9.28,23.33-14.96,38.02-14.96,16.76,0,31.78,7.39,42.02,19.08l53.63-54.28c-15.37-15.83-34.6-27.94-56.27-34.64-2.77,19.27-19.34,34.08-39.37,34.08s-36.48-14.69-39.34-33.85c-18.75,5.91-35.69,15.91-49.79,28.93l51.11,55.65Z"/>
      <path class="cls-10" d="M32.93,197.8c5.87,18.73,15.8,35.63,28.76,49.7l51.52-56.1c-6.75-9.23-10.75-20.61-10.75-32.93s3.91-23.45,10.54-32.63l-51.56-56.14c-12.86,14.03-22.73,30.83-28.55,49.43,19.13,2.88,33.8,19.4,33.8,39.33s-14.64,36.42-33.76,39.33Z"/>
    </g>
  </g>
  </svg>